HIERARCHY
ROOT Hips
{
	OFFSET 56.486801 -10.010716 96.921799
	CHANNELS 6 Xposition Yposition Zposition Xrotation Yrotation Zrotation
	JOINT spine
	{
		OFFSET 0.000000 -0.458068 7.965683
		CHANNELS 3 Xrotation Yrotation Zrotation
		JOINT spine1
		{
			OFFSET 0.000000 -0.000002 10.243103
			CHANNELS 3 Xrotation Yrotation Zrotation
			JOINT spine2
			{
				OFFSET 0.000000 -0.000001 9.814751
				CHANNELS 3 Xrotation Yrotation Zrotation
				JOINT Neck
				{
					OFFSET 0.000000 -1.201385 25.198601
					CHANNELS 3 Xrotation Yrotation Zrotation
					JOINT Head
					{
						OFFSET 0.000000 -0.000001 7.613144
						CHANNELS 3 Xrotation Yrotation Zrotation
						End Site
						{
							OFFSET 0.000000 6.077327 18.428101
						}
					}
				}
				JOINT RightShoulder
				{
					OFFSET -4.132698 0.575449 10.599205
					CHANNELS 3 Xrotation Yrotation Zrotation
					JOINT RightArm
					{
						OFFSET 0.000000 -0.000003 13.901794
						CHANNELS 3 Xrotation Yrotation Zrotation
						JOINT RightArmRoll
						{
							OFFSET 0.000000 -0.000001 7.017883
							CHANNELS 3 Xrotation Yrotation Zrotation
							JOINT RightForeArm
							{
								OFFSET 0.000000 -0.000003 20.440598
								CHANNELS 3 Xrotation Yrotation Zrotation
								JOINT RightForeArmRoll
								{
									OFFSET 0.000000 -0.000002 7.875153
									CHANNELS 3 Xrotation Yrotation Zrotation
									JOINT RightHand
									{
										OFFSET 0.000000 -0.000002 15.803696
										CHANNELS 3 Xrotation Yrotation Zrotation
										End Site
										{
											OFFSET 0.000000 0.000000 0.100006
										}
									}
								}
							}
						}
					}
				}
				JOINT LeftShoulder
				{
					OFFSET 4.132698 0.575449 10.599205
					CHANNELS 3 Xrotation Yrotation Zrotation
					JOINT LeftArm
					{
						OFFSET 0.000000 -0.000003 13.901794
						CHANNELS 3 Xrotation Yrotation Zrotation
						JOINT LeftArmRoll
						{
							OFFSET 0.000000 -0.000001 7.017883
							CHANNELS 3 Xrotation Yrotation Zrotation
							JOINT LeftForeArm
							{
								OFFSET 0.000000 -0.000003 20.440598
								CHANNELS 3 Xrotation Yrotation Zrotation
								JOINT LeftForeArmRoll
								{
									OFFSET 0.000000 -0.000002 7.875153
									CHANNELS 3 Xrotation Yrotation Zrotation
									JOINT LeftHand
									{
										OFFSET 0.000000 -0.000002 15.803696
										CHANNELS 3 Xrotation Yrotation Zrotation
										End Site
										{
											OFFSET 0.000000 0.000000 0.100006
										}
									}
								}
							}
						}
					}
				}
			}
		}
	}
	JOINT RightUpLeg
	{
		OFFSET -7.060478 1.086101 -1.294701
		CHANNELS 3 Xrotation Yrotation Zrotation
		JOINT RightUpLegRoll
		{
			OFFSET 0.000000 -0.000004 18.530800
			CHANNELS 3 Xrotation Yrotation Zrotation
			JOINT RightLeg
			{
				OFFSET 0.000000 0.000004 -22.947601
				CHANNELS 3 Xrotation Yrotation Zrotation
				JOINT RightLegRoll
				{
					OFFSET 0.000000 -0.000004 23.022598
					CHANNELS 3 Xrotation Yrotation Zrotation
					JOINT RightFoot
					{
						OFFSET 0.000000 -0.000003 19.162506
						CHANNELS 3 Xrotation Yrotation Zrotation
						JOINT RightToeBase
						{
							OFFSET 0.000000 -0.000003 16.018799
							CHANNELS 3 Xrotation Yrotation Zrotation
							End Site
							{
								OFFSET 0.006790 0.894205 7.757828
							}
						}
					}
				}
			}
		}
	}
	JOINT LeftUpLeg
	{
		OFFSET 7.060478 1.086101 -1.294701
		CHANNELS 3 Xrotation Yrotation Zrotation
		JOINT LeftUpLegRoll
		{
			OFFSET 0.000000 -0.000004 18.530899
			CHANNELS 3 Xrotation Yrotation Zrotation
			JOINT LeftLeg
			{
				OFFSET 0.000000 -0.000003 22.947502
				CHANNELS 3 Xrotation Yrotation Zrotation
				JOINT LeftLegRoll
				{
					OFFSET 0.000000 -0.000004 23.235504
					CHANNELS 3 Xrotation Yrotation Zrotation
					JOINT LeftFoot
					{
						OFFSET 0.000000 -0.000004 18.949600
						CHANNELS 3 Xrotation Yrotation Zrotation
						JOINT LeftToeBase
						{
							OFFSET 0.000000 -0.000002 16.018799
							CHANNELS 3 Xrotation Yrotation Zrotation
							End Site
							{
								OFFSET -0.030430 0.894205 7.757812
							}
						}
					}
				}
			}
		}
	}
}
MOTION
Frames: 5
Frame Time: 0.041667
57.424698 -9.271187 96.938293 -4.719052 0.132042 0.910640 -0.248056 -0.199171 -0.335360 3.506945 -0.399869 -0.654179 5.152001 -0.407667 -0.649447 11.836930 12.003316 1.161196 -1.172412 -10.316386 1.481189 -6.868650 -66.551109 -8.695797 -56.143038 -120.520286 -43.105505 0.000001 0.000000 -0.000000 5.528519 -2.525602 -0.840165 0.000003 0.000006 -3.005528 -5.000216 -7.999780 0.000048 -11.386416 65.677241 13.770925 -53.794590 113.869287 46.293660 -0.000004 -0.000040 0.000002 1.073449 6.911001 0.656601 -0.000006 -0.000001 3.009911 -5.000214 7.999111 -0.000097 2.767500 -172.970128 5.701325 -179.999991 0.000006 -1.196001 175.202986 -2.255082 -0.443193 -0.000000 -0.000001 0.059052 69.325273 6.947888 1.967832 25.456952 -7.355625 0.000015 7.401762 175.138645 -3.633657 -0.000020 -0.000003 -1.262270 -3.644560 3.772926 0.162577 -0.000003 0.000000 -0.049610 68.950527 -6.936691 -1.999960 25.456953 7.355613 0.000000 
57.421597 -9.257139 96.936996 -4.698141 0.129233 0.911422 -0.250907 -0.199443 -0.334364 3.502725 -0.400414 -0.653823 5.147771 -0.408209 -0.649078 11.887246 12.000282 1.168174 -1.203407 -10.321073 1.491271 -6.889297 -66.527286 -8.717399 -56.022014 -120.364954 -42.896187 -0.000003 0.000000 -0.000000 5.718411 -2.483764 -0.838762 0.000003 0.000006 -3.005530 -5.000215 -7.999779 0.000048 -11.388384 65.672733 13.772948 -53.652990 113.745141 46.053387 -0.000002 -0.000040 0.000002 1.175713 6.845236 0.655184 -0.000006 -0.000000 3.009911 -5.000213 7.999111 -0.000098 2.746996 -172.963025 5.700977 -179.999991 0.000006 -1.196002 175.201934 -2.258072 -0.443486 -0.000000 -0.000001 0.059051 69.330238 6.947867 1.967815 25.456950 -7.355624 0.000015 7.380649 175.144383 -3.625250 -0.000020 -0.000004 -1.262260 -3.643946 3.772371 0.162325 -0.000003 0.000000 -0.049610 68.950753 -6.936702 -1.999949 25.456957 7.355613 0.000000 
57.417297 -9.263170 96.938103 -4.676992 0.126261 0.912057 -0.253855 -0.199637 -0.333332 3.498416 -0.400807 -0.653440 5.143461 -0.408597 -0.648683 11.938383 11.997401 1.174974 -1.236209 -10.326347 1.501107 -6.909094 -66.503995 -8.738058 -55.899911 -120.208078 -42.689662 -0.000002 -0.000000 0.000001 5.909963 -2.445339 -0.837738 0.000001 0.000005 -3.005531 -5.000215 -7.999780 0.000049 -11.388312 65.667262 13.772615 -53.506066 113.620613 45.809382 -0.000002 -0.000039 0.000002 1.277749 6.781341 0.654118 -0.000005 -0.000001 3.009911 -5.000215 7.999111 -0.000098 2.726170 -172.955894 5.700837 -179.999991 0.000006 -1.196002 175.200841 -2.260056 -0.443696 -0.000000 -0.000002 0.059051 69.335108 6.947872 1.967912 25.456948 -7.355624 0.000014 7.359339 175.150093 -3.616601 -0.000020 -0.000004 -1.262270 -3.643191 3.771754 0.162046 -0.000003 0.000000 -0.049610 68.950958 -6.936713 -1.999937 25.456953 7.355613 -0.000000 
57.444298 -9.248266 96.933205 -4.655670 0.123175 0.912592 -0.256874 -0.199778 -0.332274 3.494055 -0.401091 -0.653037 5.139102 -0.408877 -0.648268 11.990240 11.994578 1.181627 -1.270257 -10.332117 1.510786 -6.928294 -66.481038 -8.758067 -55.774450 -120.051189 -42.482079 -0.000001 0.000000 -0.000000 6.102679 -2.409325 -0.837031 0.000001 0.000006 -3.005530 -5.000213 -7.999780 0.000049 -11.386829 65.661102 13.770647 -53.356529 113.495566 45.563949 0.000000 -0.000039 0.000003 1.379629 6.718771 0.653354 -0.000005 -0.000001 3.009910 -5.000217 7.999111 -0.000099 2.705124 -172.948805 5.700832 -179.999991 0.000006 -1.196002 175.199652 -2.263049 -0.443994 -0.000000 -0.000002 0.059051 69.340176 6.947853 1.967891 25.456950 -7.355623 0.000014 7.337889 175.156800 -3.607656 -0.000020 -0.000003 -1.262290 -3.642347 3.771099 0.161747 -0.000002 0.000000 -0.049611 68.951176 -6.936727 -1.999827 25.456952 7.355612 0.000001 
57.495697 -9.246749 96.929901 -4.634258 0.120023 0.913070 -0.259936 -0.199889 -0.331202 3.489655 -0.401314 -0.652624 5.134702 -0.409096 -0.647844 12.042515 11.991927 1.188177 -1.305038 -10.338176 1.520359 -6.947110 -66.458185 -8.777654 -55.647259 -119.893903 -42.274257 -0.000001 0.000000 -0.000000 6.296040 -2.374696 -0.836604 0.000001 0.000006 -3.005530 -5.000215 -7.999780 0.000049 -11.384584 65.654681 13.767792 -53.202632 113.370697 45.314753 -0.000002 -0.000041 0.000003 1.481411 6.656976 0.652857 -0.000004 -0.000001 3.009911 -5.000216 7.999110 -0.000098 2.683958 -172.940677 5.700957 -179.999991 0.000007 -1.196001 175.198423 -2.265031 -0.443212 -0.000000 -0.000002 0.059051 69.345155 6.947861 1.967881 25.456955 -7.355624 0.000015 7.316367 175.162524 -3.598758 -0.000020 -0.000004 -1.262310 -3.641453 3.770424 0.161438 -0.000003 0.000000 -0.049611 68.951374 -6.936704 -1.999910 25.456953 7.355610 0.000002 
